<svg xmlns="http://www.w3.org/2000/svg" viewBox="0 0 1000 451.51"><defs><style>.a{fill:#041968;}</style></defs><path class="a" d="M822,153.83H726.22a20.3,20.3,0,0,0-20.29,20.3v40.26h48.36V191.06l68.26,40.31-68.26,40.31V248.35H705.93v38.29a20.3,20.3,0,0,0,20.29,20.3H822a20.29,20.29,0,0,0,20.29-20.3V174.13A20.29,20.29,0,0,0,822,153.83Z"/><rect class="a" x="642.48" y="276.48" width="30.45" height="30.45" rx="15.23"/><rect class="a" x="642.48" y="153.83" width="30.45" height="114.25" rx="15.23"/><path class="a" d="M536.44,152a81.91,81.91,0,1,0,81.91,81.91A81.91,81.91,0,0,0,536.44,152ZM478,233.93a58.13,58.13,0,0,1,10-32.62l78.64,82.63a58.4,58.4,0,0,1-88.61-50ZM583.86,268l-79.11-83.13A58.38,58.38,0,0,1,583.86,268Z"/><path class="a" d="M418.55,177.31,364.63,270.7l-53.92-93.39H418.55m25.5-23.48H285.2A8.75,8.75,0,0,0,277.63,167l79.42,137.57a8.76,8.76,0,0,0,15.16,0L451.63,167a8.75,8.75,0,0,0-7.58-13.13Z"/><path class="a" d="M222.92,190.07l53.92,93.39H169l53.91-93.39m0-34.27a12.55,12.55,0,0,0-11,6.34L139.33,287.92a12.68,12.68,0,0,0,11,19H295.54a12.68,12.68,0,0,0,11-19L233.9,162.14a12.55,12.55,0,0,0-11-6.34Z"/></svg>